<mxfile host="app.diagrams.net" modified="2024-07-03T06:12:52.769Z" agent="Mozilla/5.0 (Windows NT 10.0; Win64; x64) AppleWebKit/537.36 (KHTML, like Gecko) Chrome/114.0.0.0 Safari/537.36" version="24.5.4" etag="utuaEfayDLIt1YrRCdc7" type="github">
  <diagram name="第 1 页" id="445EGbtGXn1tnQxHmSBl">
    <mxGraphModel>
      <root>
        <mxCell id="0" />
        <mxCell id="1" parent="0" />
      </root>
    </mxGraphModel>
  </diagram>
</mxfile>
